# xmcd
#
# Track frame offsets:
#	150
#	18489
#	33925
#	51389
#	66487
#	84205
#	105745
#	119754
#	139185
#	157628
#	175994
#	195615
#	214363
#	235655
#	262818
#	279401
#	296122
#	315137
#	335183
#
# Disc length: 4693 seconds
#
# Revision: 0
# Processed by: cddbd v1.5.2PL0 Copyright (c) Steve Scherf et al.
# Submitted via: audiograbber 1.83.01
#
DISCID=16125313
DTITLE=XMIX - Urban radio FEB 2010
DYEAR=2010
DGENRE=RNB
TTITLE0=Million Dollar Girl  	Trina - Keri Hilson - Diddy - Million Dollar Girl
TTITLE0=135 BPM
TTITLE1=Ryan Leslie - Guardian Angel 98 BPM
TTITLE2=Ying Yang Twins - Mr. Collipark - Da Bubble Butt 97 BPM
TTITLE3=Keri Hilson - Keyshia Cole - Get Ya Money Up [Remix] 95 BPM
TTITLE4=Alicia Keys - Raekwon - Empire State Of Mind [Remix] 93 BPM
TTITLE5=Eminem - Dr. Dre - Drop The Bomb On Em  92 BPM
TTITLE6=Ne-Yo - Yo New Man 91 BPM
TTITLE7=Kevin Rudolf - Birdman - I Made It 91 BPM
TTITLE8=Wale - Raheem DeVaughn - Pretty Girls [Remix] 88 BPM
TTITLE9=Sean Kingston - Sean Paul - Follow Me (Twitter Song) 87 BPM
TTITLE10=Jamie Foxx - Lil Wayne - Straight To The Dancefloor [Remix] 87 BPM
TTITLE11=Alicia Keys - Drake - Unthinkable 86 BPM
TTITLE12=Big Unk - Young Joe - Johnny Bravo 76 BPM
TTITLE13=Birdman - Drake - 4 My Town 76 BPM
TTITLE14=Plies - Awesome 75 BPM
TTITLE15=Bei Maejor - Drunk In The Club 73 BPM
TTITLE16=Jay-Z - Mr. Hudson - Young Forever 70 BPM
TTITLE17=Cyhi Da Prynce - Akon - Uh Uh 68 BPM
TTITLE18=Belly - Drake - Make It Go 62 BPM
EXTD=
EXTT0=
EXTT1=
EXTT2=
EXTT3=
EXTT4=
EXTT5=
EXTT6=
EXTT7=
EXTT8=
EXTT9=
EXTT10=
EXTT11=
EXTT12=
EXTT13=
EXTT14=
EXTT15=
EXTT16=
EXTT17=
EXTT18=
PLAYORDER=
